<svg xmlns="http://www.w3.org/2000/svg" viewBox="0 0 128 128"><circle cx="64" cy="64" r="64" style="fill:#e6711b"/><path d="M20.73,87.94V41.59l-7.48-2.41V34.81L36,31.36l2.3.46V38.6h.58C44.53,34.12,50.4,31,58.68,31c7.13,0,11.73,2.19,14.26,7.71h.46C79.15,34.23,85.59,31,93.75,31,104.33,31,110,36.3,110,47.92v40l7.13,2.53V95H86.28V90.47l6-2.53V50.56c0-7-3.22-9.66-8.74-9.66a21.89,21.89,0,0,0-9.43,2.42V87.94l6,2.53V95H50.63V90.47l6.21-2.53V50.56c0-7-2.88-9.66-8.4-9.66a20.41,20.41,0,0,0-9.77,2.42V87.94l5.86,2.53V95H13.6V90.47Z" style="fill:#fff"/></svg>