<svg xmlns="http://www.w3.org/2000/svg" viewBox="0 0 128 128"><circle cx="64" cy="64" r="64" style="fill:#224583"/><path d="M71.76,93.45a28.51,28.51,0,0,1-11.15-2.07V109l8.28,2.53v4.6H35.42v-4.6L42.55,109v-70l-7.24-2.88V31.81l22.88-3.45,2.19.46v6.67h.69A25.23,25.23,0,0,1,79.24,28c12,0,22.08,8.05,22.08,30.71C101.32,82.76,88.21,93.45,71.76,93.45ZM69.23,37.9a16.93,16.93,0,0,0-8.62,2.42V84.48a12.41,12.41,0,0,0,8,2.42c8.62,0,13.91-6.67,13.91-25.88C82.57,43.54,77.74,37.9,69.23,37.9Z" style="fill:#fff"/></svg>